<mxfile host="app.diagrams.net" modified="2022-05-09T06:13:07.603Z" agent="5.0 (Windows NT 10.0; Win64; x64) AppleWebKit/537.36 (KHTML, like Gecko) Chrome/101.0.4951.54 Safari/537.36" etag="v_ynvnPFJyRWbCgIz_6Z" version="18.0.2" type="github">
  <diagram id="0olNeXQWjINQZvu6lN0X" name="Page-1">
    <mxGraphModel dx="2249" dy="794" grid="1" gridSize="10" guides="1" tooltips="1" connect="1" arrows="1" fold="1" page="1" pageScale="1" pageWidth="827" pageHeight="1169" math="0" shadow="0">
      <root>
        <mxCell id="0" />
        <mxCell id="1" parent="0" />
        <mxCell id="ssqs3UzeB_QH6sZrgzqs-24" value="" style="rounded=0;whiteSpace=wrap;html=1;" vertex="1" parent="1">
          <mxGeometry x="-641" y="770" width="468" height="100" as="geometry" />
        </mxCell>
        <mxCell id="ssqs3UzeB_QH6sZrgzqs-16" style="edgeStyle=orthogonalEdgeStyle;rounded=0;orthogonalLoop=1;jettySize=auto;html=1;exitX=0;exitY=0.5;exitDx=0;exitDy=0;entryX=0;entryY=0.5;entryDx=0;entryDy=0;fontSize=30;" edge="1" parent="1" source="ssqs3UzeB_QH6sZrgzqs-11" target="ssqs3UzeB_QH6sZrgzqs-15">
          <mxGeometry relative="1" as="geometry" />
        </mxCell>
        <mxCell id="ssqs3UzeB_QH6sZrgzqs-17" style="edgeStyle=orthogonalEdgeStyle;rounded=0;orthogonalLoop=1;jettySize=auto;html=1;exitX=0;exitY=0.5;exitDx=0;exitDy=0;entryX=0;entryY=0.5;entryDx=0;entryDy=0;fontSize=30;" edge="1" parent="1" source="ssqs3UzeB_QH6sZrgzqs-11" target="ssqs3UzeB_QH6sZrgzqs-15">
          <mxGeometry relative="1" as="geometry" />
        </mxCell>
        <mxCell id="ssqs3UzeB_QH6sZrgzqs-18" style="edgeStyle=orthogonalEdgeStyle;rounded=0;orthogonalLoop=1;jettySize=auto;html=1;exitX=0;exitY=0.5;exitDx=0;exitDy=0;entryX=0;entryY=0.5;entryDx=0;entryDy=0;fontSize=30;" edge="1" parent="1" source="ssqs3UzeB_QH6sZrgzqs-11" target="ssqs3UzeB_QH6sZrgzqs-15">
          <mxGeometry relative="1" as="geometry" />
        </mxCell>
        <mxCell id="ssqs3UzeB_QH6sZrgzqs-11" value="" style="rounded=0;whiteSpace=wrap;html=1;" vertex="1" parent="1">
          <mxGeometry x="-649.5" y="950" width="470" height="100" as="geometry" />
        </mxCell>
        <mxCell id="josuYRWAuAv7qahsjw2j-20" value="2. Client Server가 authorization-uri로 redirect하라는 응답을 줌" style="edgeStyle=orthogonalEdgeStyle;rounded=0;orthogonalLoop=1;jettySize=auto;html=1;exitX=0;exitY=0.5;exitDx=0;exitDy=0;entryX=1;entryY=0.75;entryDx=0;entryDy=0;" parent="1" edge="1">
          <mxGeometry relative="1" as="geometry">
            <mxPoint x="-218" y="366" as="sourcePoint" />
            <mxPoint x="-608" y="381" as="targetPoint" />
            <Array as="points">
              <mxPoint x="-218" y="381" />
            </Array>
          </mxGeometry>
        </mxCell>
        <mxCell id="josuYRWAuAv7qahsjw2j-28" style="edgeStyle=orthogonalEdgeStyle;rounded=0;orthogonalLoop=1;jettySize=auto;html=1;exitX=0.25;exitY=0;exitDx=0;exitDy=0;entryX=0.25;entryY=1;entryDx=0;entryDy=0;" parent="1" source="josuYRWAuAv7qahsjw2j-13" target="josuYRWAuAv7qahsjw2j-21" edge="1">
          <mxGeometry relative="1" as="geometry" />
        </mxCell>
        <mxCell id="josuYRWAuAv7qahsjw2j-31" value="6. Client Server가 획득한 token_uri에 Authorization_code, client-id, client-secret를 포함하여 accessToken을 요청" style="edgeLabel;html=1;align=center;verticalAlign=middle;resizable=0;points=[];" parent="josuYRWAuAv7qahsjw2j-28" vertex="1" connectable="0">
          <mxGeometry x="0.4079" relative="1" as="geometry">
            <mxPoint as="offset" />
          </mxGeometry>
        </mxCell>
        <mxCell id="josuYRWAuAv7qahsjw2j-32" value="8. Client Server가 Resource Server에 사용자 정보 요청" style="edgeStyle=orthogonalEdgeStyle;rounded=0;orthogonalLoop=1;jettySize=auto;html=1;exitX=0.75;exitY=0;exitDx=0;exitDy=0;entryX=0.25;entryY=1;entryDx=0;entryDy=0;" parent="1" source="josuYRWAuAv7qahsjw2j-13" target="josuYRWAuAv7qahsjw2j-27" edge="1">
          <mxGeometry relative="1" as="geometry">
            <Array as="points">
              <mxPoint x="-147" y="350" />
              <mxPoint x="-147" y="210" />
              <mxPoint x="-237" y="210" />
            </Array>
          </mxGeometry>
        </mxCell>
        <mxCell id="josuYRWAuAv7qahsjw2j-34" value="10. Login 완료" style="edgeStyle=orthogonalEdgeStyle;rounded=0;orthogonalLoop=1;jettySize=auto;html=1;exitX=0;exitY=1;exitDx=0;exitDy=0;entryX=1.033;entryY=0.9;entryDx=0;entryDy=0;entryPerimeter=0;" parent="1" source="josuYRWAuAv7qahsjw2j-13" target="josuYRWAuAv7qahsjw2j-14" edge="1">
          <mxGeometry x="-0.0052" y="6" relative="1" as="geometry">
            <Array as="points">
              <mxPoint x="-218" y="404" />
            </Array>
            <mxPoint as="offset" />
          </mxGeometry>
        </mxCell>
        <mxCell id="josuYRWAuAv7qahsjw2j-13" value="Client Server" style="rounded=0;whiteSpace=wrap;html=1;" parent="1" vertex="1">
          <mxGeometry x="-218" y="350" width="120" height="60" as="geometry" />
        </mxCell>
        <mxCell id="josuYRWAuAv7qahsjw2j-17" value="1. 사용자가 Client Server의 로그인 버튼 클릭" style="edgeStyle=orthogonalEdgeStyle;rounded=0;orthogonalLoop=1;jettySize=auto;html=1;exitX=1;exitY=0.5;exitDx=0;exitDy=0;" parent="1" edge="1">
          <mxGeometry relative="1" as="geometry">
            <mxPoint x="-608" y="366" as="sourcePoint" />
            <mxPoint x="-218" y="366" as="targetPoint" />
          </mxGeometry>
        </mxCell>
        <mxCell id="josuYRWAuAv7qahsjw2j-23" value="3. Resource Owner가 authorization-uri에 client-id를 포함하여 redirect요청한 후&lt;br&gt;Authorization Server의 로그인 화면을 얻고 로그인" style="edgeStyle=orthogonalEdgeStyle;rounded=0;orthogonalLoop=1;jettySize=auto;html=1;exitX=0.5;exitY=0;exitDx=0;exitDy=0;" parent="1" source="josuYRWAuAv7qahsjw2j-14" edge="1">
          <mxGeometry x="0.4205" y="30" relative="1" as="geometry">
            <mxPoint x="-467" y="130" as="targetPoint" />
            <Array as="points">
              <mxPoint x="-687" y="350" />
              <mxPoint x="-687" y="130" />
            </Array>
            <mxPoint as="offset" />
          </mxGeometry>
        </mxCell>
        <mxCell id="josuYRWAuAv7qahsjw2j-26" value="5. Resource Owner가 획득한 authorization_code를 Client Server에 전달" style="edgeStyle=orthogonalEdgeStyle;rounded=0;orthogonalLoop=1;jettySize=auto;html=1;exitX=1;exitY=0.75;exitDx=0;exitDy=0;entryX=0;entryY=0.75;entryDx=0;entryDy=0;" parent="1" source="josuYRWAuAv7qahsjw2j-14" target="josuYRWAuAv7qahsjw2j-13" edge="1">
          <mxGeometry relative="1" as="geometry" />
        </mxCell>
        <mxCell id="josuYRWAuAv7qahsjw2j-14" value="Resource Owner&lt;br&gt;(Browser)" style="rounded=0;whiteSpace=wrap;html=1;" parent="1" vertex="1">
          <mxGeometry x="-728" y="350" width="120" height="60" as="geometry" />
        </mxCell>
        <mxCell id="josuYRWAuAv7qahsjw2j-24" value="4. Authorization Server가 redirect_uri로 reirect하라는 응답과 함께&lt;br&gt;Authorization_code를 포함하여 Resource Owner에게 전달" style="edgeStyle=orthogonalEdgeStyle;rounded=0;orthogonalLoop=1;jettySize=auto;html=1;exitX=0;exitY=0.75;exitDx=0;exitDy=0;" parent="1" source="josuYRWAuAv7qahsjw2j-21" target="josuYRWAuAv7qahsjw2j-14" edge="1">
          <mxGeometry x="-0.4133" y="35" relative="1" as="geometry">
            <Array as="points">
              <mxPoint x="-647" y="155" />
            </Array>
            <mxPoint as="offset" />
          </mxGeometry>
        </mxCell>
        <mxCell id="josuYRWAuAv7qahsjw2j-30" value="7.Authorization Server가 accessToken을 전달" style="edgeStyle=orthogonalEdgeStyle;rounded=0;orthogonalLoop=1;jettySize=auto;html=1;exitX=0.5;exitY=1;exitDx=0;exitDy=0;" parent="1" source="josuYRWAuAv7qahsjw2j-21" target="josuYRWAuAv7qahsjw2j-13" edge="1">
          <mxGeometry relative="1" as="geometry">
            <Array as="points">
              <mxPoint x="-407" y="240" />
              <mxPoint x="-167" y="240" />
            </Array>
          </mxGeometry>
        </mxCell>
        <mxCell id="josuYRWAuAv7qahsjw2j-21" value="Authorization Server" style="rounded=0;whiteSpace=wrap;html=1;" parent="1" vertex="1">
          <mxGeometry x="-467" y="110" width="120" height="60" as="geometry" />
        </mxCell>
        <mxCell id="josuYRWAuAv7qahsjw2j-33" value="9. Resource Server가 사용자 정보 전달" style="edgeStyle=orthogonalEdgeStyle;rounded=0;orthogonalLoop=1;jettySize=auto;html=1;exitX=0.5;exitY=1;exitDx=0;exitDy=0;entryX=0.75;entryY=0;entryDx=0;entryDy=0;" parent="1" source="josuYRWAuAv7qahsjw2j-27" target="josuYRWAuAv7qahsjw2j-13" edge="1">
          <mxGeometry x="-0.1583" y="21" relative="1" as="geometry">
            <Array as="points">
              <mxPoint x="-207" y="190" />
              <mxPoint x="-128" y="190" />
            </Array>
            <mxPoint as="offset" />
          </mxGeometry>
        </mxCell>
        <mxCell id="ssqs3UzeB_QH6sZrgzqs-1" value="delegate" style="edgeStyle=orthogonalEdgeStyle;rounded=0;orthogonalLoop=1;jettySize=auto;html=1;exitX=0;exitY=0.5;exitDx=0;exitDy=0;entryX=1;entryY=0.5;entryDx=0;entryDy=0;" edge="1" parent="1" source="josuYRWAuAv7qahsjw2j-27" target="josuYRWAuAv7qahsjw2j-21">
          <mxGeometry relative="1" as="geometry" />
        </mxCell>
        <mxCell id="josuYRWAuAv7qahsjw2j-27" value="Resource Server" style="rounded=0;whiteSpace=wrap;html=1;" parent="1" vertex="1">
          <mxGeometry x="-267" y="110" width="120" height="60" as="geometry" />
        </mxCell>
        <mxCell id="josuYRWAuAv7qahsjw2j-35" value="&lt;h1&gt;Oauth Login&lt;/h1&gt;" style="text;html=1;strokeColor=none;fillColor=none;spacing=5;spacingTop=-20;whiteSpace=wrap;overflow=hidden;rounded=0;" parent="1" vertex="1">
          <mxGeometry x="-519" y="30" width="151" height="40" as="geometry" />
        </mxCell>
        <mxCell id="josuYRWAuAv7qahsjw2j-39" value="1. Client Server의 API 호출" style="edgeStyle=orthogonalEdgeStyle;rounded=0;orthogonalLoop=1;jettySize=auto;html=1;exitX=1.017;exitY=0.383;exitDx=0;exitDy=0;exitPerimeter=0;entryX=0.013;entryY=0.367;entryDx=0;entryDy=0;entryPerimeter=0;" parent="1" source="josuYRWAuAv7qahsjw2j-36" target="josuYRWAuAv7qahsjw2j-37" edge="1">
          <mxGeometry relative="1" as="geometry">
            <mxPoint x="-677.5" y="578" as="sourcePoint" />
            <mxPoint x="-503.5" y="578" as="targetPoint" />
          </mxGeometry>
        </mxCell>
        <mxCell id="josuYRWAuAv7qahsjw2j-36" value="Resource Owner&lt;br&gt;(Browser)" style="rounded=0;whiteSpace=wrap;html=1;" parent="1" vertex="1">
          <mxGeometry x="-797" y="555" width="120" height="60" as="geometry" />
        </mxCell>
        <mxCell id="josuYRWAuAv7qahsjw2j-40" value="2. accessToken을 포함하여 데이터 요청" style="edgeStyle=orthogonalEdgeStyle;rounded=0;orthogonalLoop=1;jettySize=auto;html=1;exitX=1.038;exitY=0.383;exitDx=0;exitDy=0;exitPerimeter=0;" parent="1" source="josuYRWAuAv7qahsjw2j-37" edge="1">
          <mxGeometry relative="1" as="geometry">
            <mxPoint x="-443" y="577" as="sourcePoint" />
            <mxPoint x="-150" y="577" as="targetPoint" />
          </mxGeometry>
        </mxCell>
        <mxCell id="josuYRWAuAv7qahsjw2j-44" value="4. 데이터 전달" style="edgeStyle=orthogonalEdgeStyle;rounded=0;orthogonalLoop=1;jettySize=auto;html=1;exitX=0;exitY=0.75;exitDx=0;exitDy=0;entryX=1;entryY=0.75;entryDx=0;entryDy=0;" parent="1" source="josuYRWAuAv7qahsjw2j-37" edge="1">
          <mxGeometry relative="1" as="geometry">
            <mxPoint x="-503" y="600" as="sourcePoint" />
            <mxPoint x="-677" y="600" as="targetPoint" />
          </mxGeometry>
        </mxCell>
        <mxCell id="josuYRWAuAv7qahsjw2j-37" value="Client Server" style="rounded=0;whiteSpace=wrap;html=1;" parent="1" vertex="1">
          <mxGeometry x="-497" y="555" width="120" height="60" as="geometry" />
        </mxCell>
        <mxCell id="josuYRWAuAv7qahsjw2j-43" value="3. 데이터 전달" style="edgeStyle=orthogonalEdgeStyle;rounded=0;orthogonalLoop=1;jettySize=auto;html=1;exitX=0;exitY=0.75;exitDx=0;exitDy=0;entryX=1;entryY=0.75;entryDx=0;entryDy=0;" parent="1" target="josuYRWAuAv7qahsjw2j-37" edge="1">
          <mxGeometry relative="1" as="geometry">
            <mxPoint x="-150" y="592" as="sourcePoint" />
            <mxPoint x="-443" y="592" as="targetPoint" />
            <Array as="points">
              <mxPoint x="-150" y="600" />
            </Array>
          </mxGeometry>
        </mxCell>
        <mxCell id="josuYRWAuAv7qahsjw2j-38" value="Resource Server" style="rounded=0;whiteSpace=wrap;html=1;" parent="1" vertex="1">
          <mxGeometry x="-150" y="555" width="120" height="60" as="geometry" />
        </mxCell>
        <mxCell id="josuYRWAuAv7qahsjw2j-41" value="&lt;h1&gt;Pooling&lt;/h1&gt;" style="text;html=1;strokeColor=none;fillColor=none;spacing=5;spacingTop=-20;whiteSpace=wrap;overflow=hidden;rounded=0;" parent="1" vertex="1">
          <mxGeometry x="-493" y="500" width="99" height="40" as="geometry" />
        </mxCell>
        <mxCell id="ssqs3UzeB_QH6sZrgzqs-32" style="edgeStyle=orthogonalEdgeStyle;rounded=0;orthogonalLoop=1;jettySize=auto;html=1;exitX=1;exitY=0.5;exitDx=0;exitDy=0;fontSize=12;" edge="1" parent="1" source="ssqs3UzeB_QH6sZrgzqs-6" target="ssqs3UzeB_QH6sZrgzqs-27">
          <mxGeometry relative="1" as="geometry" />
        </mxCell>
        <mxCell id="ssqs3UzeB_QH6sZrgzqs-6" value="Client&lt;br&gt;(Browser)" style="rounded=0;whiteSpace=wrap;html=1;" vertex="1" parent="1">
          <mxGeometry x="-805" y="790" width="77" height="60" as="geometry" />
        </mxCell>
        <mxCell id="ssqs3UzeB_QH6sZrgzqs-10" style="edgeStyle=orthogonalEdgeStyle;rounded=0;orthogonalLoop=1;jettySize=auto;html=1;exitX=1;exitY=0.5;exitDx=0;exitDy=0;" edge="1" parent="1" source="ssqs3UzeB_QH6sZrgzqs-7">
          <mxGeometry relative="1" as="geometry">
            <mxPoint x="-439.5" y="1000" as="targetPoint" />
          </mxGeometry>
        </mxCell>
        <mxCell id="ssqs3UzeB_QH6sZrgzqs-7" value="JwtFilter" style="rounded=0;whiteSpace=wrap;html=1;" vertex="1" parent="1">
          <mxGeometry x="-569.5" y="970" width="90" height="60" as="geometry" />
        </mxCell>
        <mxCell id="ssqs3UzeB_QH6sZrgzqs-8" value="&lt;h1&gt;Jwt Authentication&lt;/h1&gt;" style="text;html=1;strokeColor=none;fillColor=none;spacing=5;spacingTop=-20;whiteSpace=wrap;overflow=hidden;rounded=0;" vertex="1" parent="1">
          <mxGeometry x="-555.25" y="690" width="223.5" height="40" as="geometry" />
        </mxCell>
        <mxCell id="ssqs3UzeB_QH6sZrgzqs-21" style="edgeStyle=orthogonalEdgeStyle;rounded=0;orthogonalLoop=1;jettySize=auto;html=1;exitX=0;exitY=0.5;exitDx=0;exitDy=0;entryX=1;entryY=0.5;entryDx=0;entryDy=0;fontSize=30;" edge="1" parent="1" source="ssqs3UzeB_QH6sZrgzqs-9" target="ssqs3UzeB_QH6sZrgzqs-7">
          <mxGeometry relative="1" as="geometry" />
        </mxCell>
        <mxCell id="ssqs3UzeB_QH6sZrgzqs-9" value="UsernamePasswordFilter" style="rounded=0;whiteSpace=wrap;html=1;" vertex="1" parent="1">
          <mxGeometry x="-439.5" y="970" width="170" height="60" as="geometry" />
        </mxCell>
        <mxCell id="ssqs3UzeB_QH6sZrgzqs-12" value="SecurityFilterChain" style="text;html=1;strokeColor=none;fillColor=none;align=center;verticalAlign=middle;whiteSpace=wrap;rounded=0;" vertex="1" parent="1">
          <mxGeometry x="-539.5" y="910" width="60" height="30" as="geometry" />
        </mxCell>
        <mxCell id="ssqs3UzeB_QH6sZrgzqs-13" value="&lt;font style=&quot;font-size: 30px;&quot;&gt;...&lt;/font&gt;" style="text;html=1;strokeColor=none;fillColor=none;align=center;verticalAlign=middle;whiteSpace=wrap;rounded=0;fontSize=30;" vertex="1" parent="1">
          <mxGeometry x="-269.5" y="985" width="60" height="30" as="geometry" />
        </mxCell>
        <mxCell id="ssqs3UzeB_QH6sZrgzqs-15" value="&lt;font style=&quot;font-size: 30px;&quot;&gt;...&lt;/font&gt;" style="text;html=1;strokeColor=none;fillColor=none;align=center;verticalAlign=middle;whiteSpace=wrap;rounded=0;fontSize=30;" vertex="1" parent="1">
          <mxGeometry x="-629.5" y="985" width="60" height="30" as="geometry" />
        </mxCell>
        <mxCell id="ssqs3UzeB_QH6sZrgzqs-23" value="&lt;span style=&quot;font-size: 12px;&quot;&gt;FilterChain&lt;/span&gt;" style="text;html=1;strokeColor=none;fillColor=none;align=center;verticalAlign=middle;whiteSpace=wrap;rounded=0;fontSize=30;" vertex="1" parent="1">
          <mxGeometry x="-443" y="720" width="60" height="30" as="geometry" />
        </mxCell>
        <mxCell id="ssqs3UzeB_QH6sZrgzqs-33" style="edgeStyle=orthogonalEdgeStyle;rounded=0;orthogonalLoop=1;jettySize=auto;html=1;exitX=0;exitY=0.5;exitDx=0;exitDy=0;entryX=1;entryY=0.5;entryDx=0;entryDy=0;fontSize=12;" edge="1" parent="1" source="ssqs3UzeB_QH6sZrgzqs-27" target="ssqs3UzeB_QH6sZrgzqs-6">
          <mxGeometry relative="1" as="geometry" />
        </mxCell>
        <mxCell id="ssqs3UzeB_QH6sZrgzqs-34" style="edgeStyle=orthogonalEdgeStyle;rounded=0;orthogonalLoop=1;jettySize=auto;html=1;exitX=1;exitY=0.5;exitDx=0;exitDy=0;entryX=0;entryY=0.5;entryDx=0;entryDy=0;fontSize=12;" edge="1" parent="1" source="ssqs3UzeB_QH6sZrgzqs-27" target="ssqs3UzeB_QH6sZrgzqs-28">
          <mxGeometry relative="1" as="geometry" />
        </mxCell>
        <mxCell id="ssqs3UzeB_QH6sZrgzqs-27" value="ServletFilter1" style="rounded=0;whiteSpace=wrap;html=1;" vertex="1" parent="1">
          <mxGeometry x="-623" y="790" width="90" height="60" as="geometry" />
        </mxCell>
        <mxCell id="ssqs3UzeB_QH6sZrgzqs-35" style="edgeStyle=orthogonalEdgeStyle;rounded=0;orthogonalLoop=1;jettySize=auto;html=1;exitX=0;exitY=0.5;exitDx=0;exitDy=0;entryX=1;entryY=0.5;entryDx=0;entryDy=0;fontSize=12;" edge="1" parent="1" source="ssqs3UzeB_QH6sZrgzqs-28" target="ssqs3UzeB_QH6sZrgzqs-27">
          <mxGeometry relative="1" as="geometry" />
        </mxCell>
        <mxCell id="ssqs3UzeB_QH6sZrgzqs-36" style="edgeStyle=orthogonalEdgeStyle;rounded=0;orthogonalLoop=1;jettySize=auto;html=1;exitX=1;exitY=0.5;exitDx=0;exitDy=0;fontSize=12;" edge="1" parent="1" source="ssqs3UzeB_QH6sZrgzqs-28" target="ssqs3UzeB_QH6sZrgzqs-29">
          <mxGeometry relative="1" as="geometry" />
        </mxCell>
        <mxCell id="ssqs3UzeB_QH6sZrgzqs-42" style="edgeStyle=orthogonalEdgeStyle;rounded=0;orthogonalLoop=1;jettySize=auto;html=1;exitX=0.5;exitY=1;exitDx=0;exitDy=0;fontSize=12;dashed=1;" edge="1" parent="1" source="ssqs3UzeB_QH6sZrgzqs-28" target="ssqs3UzeB_QH6sZrgzqs-11">
          <mxGeometry relative="1" as="geometry" />
        </mxCell>
        <mxCell id="ssqs3UzeB_QH6sZrgzqs-28" value="SecurityFilter" style="rounded=0;whiteSpace=wrap;html=1;" vertex="1" parent="1">
          <mxGeometry x="-459.5" y="790" width="90" height="60" as="geometry" />
        </mxCell>
        <mxCell id="ssqs3UzeB_QH6sZrgzqs-37" style="edgeStyle=orthogonalEdgeStyle;rounded=0;orthogonalLoop=1;jettySize=auto;html=1;exitX=0;exitY=0.5;exitDx=0;exitDy=0;entryX=1;entryY=0.5;entryDx=0;entryDy=0;fontSize=12;" edge="1" parent="1" source="ssqs3UzeB_QH6sZrgzqs-29" target="ssqs3UzeB_QH6sZrgzqs-28">
          <mxGeometry relative="1" as="geometry" />
        </mxCell>
        <mxCell id="ssqs3UzeB_QH6sZrgzqs-47" style="edgeStyle=orthogonalEdgeStyle;rounded=0;orthogonalLoop=1;jettySize=auto;html=1;exitX=1;exitY=0.5;exitDx=0;exitDy=0;entryX=0;entryY=0.5;entryDx=0;entryDy=0;fontSize=12;" edge="1" parent="1" source="ssqs3UzeB_QH6sZrgzqs-29" target="ssqs3UzeB_QH6sZrgzqs-44">
          <mxGeometry relative="1" as="geometry" />
        </mxCell>
        <mxCell id="ssqs3UzeB_QH6sZrgzqs-29" value="ServletFilterN" style="rounded=0;whiteSpace=wrap;html=1;" vertex="1" parent="1">
          <mxGeometry x="-301" y="790" width="90" height="60" as="geometry" />
        </mxCell>
        <mxCell id="ssqs3UzeB_QH6sZrgzqs-48" style="edgeStyle=orthogonalEdgeStyle;rounded=0;orthogonalLoop=1;jettySize=auto;html=1;exitX=0;exitY=0.5;exitDx=0;exitDy=0;entryX=1;entryY=0.5;entryDx=0;entryDy=0;fontSize=12;" edge="1" parent="1" source="ssqs3UzeB_QH6sZrgzqs-44" target="ssqs3UzeB_QH6sZrgzqs-29">
          <mxGeometry relative="1" as="geometry" />
        </mxCell>
        <mxCell id="ssqs3UzeB_QH6sZrgzqs-44" value="DispatcherServlet" style="rounded=0;whiteSpace=wrap;html=1;fontSize=12;" vertex="1" parent="1">
          <mxGeometry x="-90" y="790" width="120" height="60" as="geometry" />
        </mxCell>
      </root>
    </mxGraphModel>
  </diagram>
</mxfile>
